<?xml version="1.0" encoding="iso-8859-1"?>
<!-- Uploaded to: SVG Repo, www.svgrepo.com, Generator: SVG Repo Mixer Tools -->
<svg fill="#000000" height="800px" width="800px" version="1.1" id="Layer_1" xmlns="http://www.w3.org/2000/svg" xmlns:xlink="http://www.w3.org/1999/xlink" 
	 viewBox="0 0 511.999 511.999" xml:space="preserve">
<g>
	<g>
		<g>
			<path d="M310.554,311.203H201.446c-4.422,0-8.007,3.584-8.007,8.007v59.269c0,4.423,3.585,8.007,8.007,8.007h109.108
				c4.422,0,8.007-3.584,8.007-8.007V319.21C318.561,314.787,314.976,311.203,310.554,311.203z M302.547,370.471h-93.094v-43.255
				h93.094V370.471z"/>
			<path d="M500.086,205.281l-36.41-27.382V83.484c5.844-1.468,10.189-6.752,10.189-13.044V24.744
				c0-7.423-6.039-13.462-13.462-13.462H351.645c-7.423,0-13.462,6.039-13.462,13.462V70.44c0,6.294,4.346,11.576,10.189,13.044
				v7.702l-78.84-59.291c-3.698-2.78-8.503-4.312-13.532-4.312c-5.028,0-9.834,1.532-13.533,4.312L11.915,205.281
				C5.122,210.388,0,220.649,0,229.149v54.753c0,9.733,6.354,14.168,12.258,14.169h0.002c3.098,0,6.307-1.181,9.28-3.416
				l4.491-3.378v201.433c0,4.423,3.585,8.007,8.007,8.007h443.923c4.422,0,8.007-3.584,8.007-8.007V291.276l4.491,3.378
				c2.972,2.236,6.18,3.416,9.28,3.416c5.904,0,12.259-4.434,12.259-14.169v-54.753C512,220.649,506.878,210.388,500.086,205.281z
				 M354.197,27.295H457.85v40.593H354.197V27.295z M447.661,83.903v81.953l-83.275-62.626V83.903H447.661z M332.888,484.703
				H179.112V299.9c0-7.617,6.197-13.814,13.815-13.814h126.146c7.617,0,13.815,6.197,13.815,13.814V484.703z M469.956,342.695
				h-0.001h-56.111V310.67h56.112V342.695z M469.956,294.656h-0.001h-64.118c-4.422,0-8.007,3.584-8.007,8.007v48.039
				c0,4.422,3.585,8.007,8.007,8.007h64.119v125.995H348.902V299.9c0-16.447-13.381-29.828-29.829-29.828H192.927
				c-16.447,0-29.829,13.38-29.829,29.828v184.803H42.045v-50.179h64.119c4.422,0,8.007-3.584,8.007-8.007v-48.039
				c0-4.422-3.585-8.007-8.007-8.007H42.045v-91.237l210.047-157.967c0.914-0.688,2.375-1.096,3.909-1.096s2.995,0.41,3.907,1.096
				l210.048,157.965V294.656z M42.045,418.509v-32.025h56.112v32.025H42.045z M495.986,278.772L269.532,108.469
				c-3.698-2.78-8.503-4.312-13.532-4.312c-5.028,0-9.834,1.532-13.533,4.312L16.014,278.772v-49.623
				c0-3.49,2.736-8.973,5.526-11.07L252.092,44.693c0.914-0.686,2.375-1.096,3.909-1.096s2.995,0.41,3.907,1.096l230.553,173.387
				c2.789,2.097,5.525,7.581,5.525,11.07V278.772z"/>
			<path d="M210.524,210.435c0,25.074,20.399,45.473,45.472,45.473c25.074,0,45.472-20.399,45.472-45.473
				c0-25.073-20.399-45.472-45.472-45.472C230.923,164.963,210.524,185.362,210.524,210.435z M285.453,210.435
				c0,16.244-13.215,29.459-29.458,29.459c-16.243,0-29.458-13.216-29.458-29.459c0-16.243,13.215-29.458,29.458-29.458
				C272.239,180.977,285.453,194.192,285.453,210.435z"/>
		</g>
	</g>
</g>
</svg>